<?xml version="1.0" encoding="UTF-8" standalone="no"?>
<!-- Created with Inkscape (http://www.inkscape.org/) -->

<svg
   xmlns:dc="http://purl.org/dc/elements/1.1/"
   xmlns:cc="http://creativecommons.org/ns#"
   xmlns:rdf="http://www.w3.org/1999/02/22-rdf-syntax-ns#"
   xmlns:svg="http://www.w3.org/2000/svg"
   xmlns="http://www.w3.org/2000/svg"
   xmlns:sodipodi="http://sodipodi.sourceforge.net/DTD/sodipodi-0.dtd"
   xmlns:inkscape="http://www.inkscape.org/namespaces/inkscape"
   width="744.09448"
   height="1052.3622"
   id="svg2"
   version="1.1"
   inkscape:version="0.48.1 r9760"
   sodipodi:docname="intimidator-large-blackbg.svg"
   style="display:inline">
  <defs
     id="defs4" />
  <sodipodi:namedview
     id="base"
     pagecolor="#ffffff"
     bordercolor="#666666"
     borderopacity="1.0"
     inkscape:pageopacity="0.0"
     inkscape:pageshadow="2"
     inkscape:zoom="0.86998029"
     inkscape:cx="466.26977"
     inkscape:cy="750.35171"
     inkscape:document-units="px"
     inkscape:current-layer="text2985"
     showgrid="false"
     inkscape:window-width="1280"
     inkscape:window-height="726"
     inkscape:window-x="0"
     inkscape:window-y="25"
     inkscape:window-maximized="1"
     inkscape:snap-global="true"
     showguides="true"
     inkscape:guide-bbox="true">
    <inkscape:grid
       type="xygrid"
       id="grid2994" />
  </sodipodi:namedview>
  <metadata
     id="metadata7">
    <rdf:RDF>
      <cc:Work
         rdf:about="">
        <dc:format>image/svg+xml</dc:format>
        <dc:type
           rdf:resource="http://purl.org/dc/dcmitype/StillImage" />
        <dc:title />
      </cc:Work>
    </rdf:RDF>
  </metadata>
  <g
     inkscape:label="Layer 1"
     inkscape:groupmode="layer"
     id="layer1"
     style="display:inline">
    <g
       style="font-size:40px;font-style:normal;font-variant:normal;font-weight:normal;font-stretch:normal;line-height:125%;letter-spacing:-3.11999988999999989px;word-spacing:0px;fill:#000000;fill-opacity:1;stroke:none;font-family:Horst Blackletter;-inkscape-font-specification:Horst Blackletter"
       id="text2985"
       transform="translate(0,-555.13204)">
      <path
         d="m 53.867839,680.43978 -0.29412,0.88261 0.588426,108.3175 c -3.7e-5,7.01206 3.138218,14.56352 9.414802,22.65437 4.315068,3.53054 8.630172,5.29583 12.945352,5.29583 l 0,0.5884 -7.355331,0.29412 c -8.92448,0 -19.614196,-5.78617 -32.06915,-17.35855 -3.57962,-4.217 -5.63909,-7.64948 -6.178481,-10.29742 l 0.294117,-0.2941 2.353701,0.58842 0.588425,0 c 1.372979,3e-5 2.05947,-2.94209 2.05947,-8.82639 l 0,-21.47751 0.294117,-48.0039 c -3.8e-5,-4.70734 -1.667211,-9.61086 -5.001632,-14.71063 -1.372979,-1.86327 -4.7074,-3.62854 -10.003226,-5.29583 l 0,-0.58842 c 16.083606,-1.22581 24.125429,-2.40266 24.125429,-3.53055 4.118975,-2.10843 6.668804,-4.85442 7.649525,-8.23795 l 0.588426,0"
         id="path3013"
         inkscape:connector-curvature="0"
         sodipodi:nodetypes="ccccccccccccscccccccc"
         style="fill:#000000" />
      <path
         d="m 118.14697,688.10513 0.58844,0 c 1.22584,6.12957 12.20974,21.82088 32.9518,47.074 l -0.29412,0.29413 -0.29411,0 c -8e-5,-0.58832 -1.86341,-1.17674 -5.59003,-1.76527 -1.76534,9e-5 -2.64799,2.05959 -2.64791,6.17847 l 0,0.88263 0.2941,0.88265 -0.2941,1.47105 c -8e-5,28.5877 1.27483,43.29832 3.82477,44.13188 -1.2e-4,1.02979 1.27483,1.81434 3.82474,2.3537 l 0,1.17684 c -8e-5,7.3063 -3.23643,14.56354 -9.709,21.77174 -0.98078,2.50084 -1.47116,4.75642 -1.47108,6.7669 -8e-5,1.91238 0.29412,3.67766 0.88266,5.29583 l -0.29412,0.29411 -0.29411,0 c -1.96153,-4.06994 -2.94222,-7.20819 -2.94214,-9.4148 l 0,-0.58842 0.88263,-10.29742 0,-1.76528 c -7e-5,-4.56027 -3.13833,-8.09082 -9.4148,-10.59165 l -0.88263,0 -0.2941,0.29412 -0.29413,0 -0.29412,-0.29412 0,-2.0595 c -1.47111,-12.65109 -9.21871,-28.83275 -23.24278,-48.54506 -4.413236,-5.05058 -7.06113,-7.69849 -7.943749,-7.94375 l -0.294118,0 0.294118,19.12382 0,28.2444 c 0.490324,9.8071 1.863303,14.90681 4.118977,15.29906 l 0.588424,-1.76527 0,-0.29411 c -3.8e-5,-2.74597 -0.490399,-5.39385 -1.471044,-7.94373 l 0.294118,-0.29412 0.294117,0 c 3.530517,3.5306 5.295787,10.88588 5.295827,22.06596 -4e-5,10.44455 3.43242,21.3304 10.2974,32.65758 l 5.29585,5.88424 0,0.29412 -0.29412,0 C 105.79059,839.47744 96.081588,828.19929 90.491568,813.14541 85.440904,802.0144 80.929632,794.46293 76.957791,790.49105 c -0.882658,-1.12776 -3.236357,-3.18729 -7.061102,-6.17848 l 0.294118,-0.29412 0.294119,0.29412 0.294118,0 c 3.922809,-0.29412 5.884214,-1.56906 5.884251,-3.82473 0.490323,4e-5 0.882619,-2.35366 1.176851,-7.0611 l -0.588425,-50.01615 c -2.549868,-9.36564 -7.159204,-16.42674 -13.828009,-21.18329 -0.686489,-0.58832 -1.37298,-0.88256 -2.059469,-0.88266 l 0,-0.88262 0.882619,0 c 3.04019,1.1e-4 7.943757,2.648 14.710628,7.94371 7.306261,3.92296 13.582809,5.88437 18.829602,5.88425 l 5.001628,-1.17685 c -3.530584,3.67778 -5.29586,6.32571 -5.295822,7.94377 -3.8e-5,0.73564 4.413132,5.63916 13.239542,14.71064 l 17.65276,23.83118 0,-23.24277 c -4e-5,-12.40588 -0.98075,-19.85924 -2.94213,-22.36016 l -0.29412,0 c -0.98079,2.10861 -1.47112,4.56039 -1.47108,7.3553 l 0,1.76528 c -4e-5,2.01055 0.49029,3.67775 1.47108,5.00164 l 0,0.29411 -0.29412,0 c -4.31517,-2.59879 -6.47271,-7.50231 -6.47267,-14.71062 l 0,-0.88263 2.05951,-21.47753 -0.29412,-3.23632"
         id="path3015"
         inkscape:connector-curvature="0"
         style="fill:#000000" />
      <path
         d="m 179.11339,690.48136 c -0.98076,3.38355 -3.53059,6.12953 -7.64953,8.23795 -3e-5,1.1279 -8.04182,2.30476 -24.12543,3.53057 l 0,0.58842 c 5.29583,1.66728 8.63022,3.43256 10.00324,5.29581 3.33438,5.09979 4.94276,10.00332 4.94276,14.71064 l -0.23537,22.94857 0,97.46825 c 0,2.04528 -0.0698,3.6084 -0.23536,4.94277 -8.62988,-0.23836 -22.61135,-2.44916 -29.23093,-6.70804 -5.49196,-4.46209 -10.39553,-9.7579 -14.71063,-15.88747 l -0.35288,0 c 0.78458,6.22763 1.76529,11.17036 2.94214,14.94599 7.55141,19.81041 16.14243,29.77439 25.65533,29.77431 l 0,-0.58842 c -2.94215,7e-5 -4.90356,-2.51055 -5.88425,-7.41416 0,-4.60926 1.17685,-7.55135 3.53054,-8.82638 2.87755,0.39246 11.66488,0.69309 13.93189,0.82379 0.88869,1.91822 2.3122,4.19457 4.35434,6.70805 l -1.05916,83.90942 0.58842,0 c 2.0104,-13.87704 6.52168,-26.03779 13.53378,-36.48235 8.63017,-8.18889 12.94528,-13.28858 12.94536,-15.29906 l 0,-0.35285 -0.23538,0 c -1.37306,0.98074 -2.70682,1.52994 -3.8836,1.5299 l -0.82379,0 c -1.52016,4e-5 -2.10234,-4.76408 -3.132,-7.51 -0.3024,-17.89962 -0.5072,-25.79483 -0.2512,-32.34052 0.91941,-1.27952 11.5848,-1.17606 14.03659,-1.57454 l 5.29584,0.94148 c 3.53048,2.05959 5.29574,3.82487 5.29582,5.29583 -0.44136,0.98079 -1.42208,1.41229 -2.94213,1.41221 l -0.94147,0 -2.00065,-0.23537 -0.35287,0.23537 5.29583,4.47204 c 8.8263,4.31522 13.29833,9.21875 13.29841,14.71063 l -0.58842,1.76527 0.23537,0.23538 c 4.51115,-4.02083 6.82565,-8.17902 6.82573,-12.5923 l 0,-0.58843 c -8e-5,-6.6197 -3.88372,-12.50391 -11.53314,-17.65276 -4.21716,-1.56903 -8.92451,-4.86421 -14.1222,-9.76784 l -1.41222,2.11832 c -2.64835,1.22513 -13.60258,2.16713 -16.18469,2.94212 l -0.58841,-154.78084 0.35287,-0.94148 z"
         id="path3017"
         inkscape:connector-curvature="0"
         sodipodi:nodetypes="cccccccsccccccccccccccccccccccccccccccccccccccccc"
         style="fill:#000000" />
      <path
         d="m 217.59976,704.63475 -0.29411,0.88263 0.58842,83.26217 c -4e-5,7.01206 3.13825,14.56354 9.4148,22.65434 4.31507,3.53057 8.63022,5.29584 12.94536,5.29584 l 0,0.58842 -7.3553,0.29412 c -8.92449,0 -19.61418,-5.78619 -32.06917,-17.35853 -3.57959,-4.21701 -5.63911,-7.64951 -6.17846,-10.29745 l 0.29412,-0.29412 2.3537,0.58842 0.58843,0 c 1.37298,4e-5 2.05945,-2.94208 2.05949,-8.82637 l 0,-21.47751 0.29413,-22.94857 c 0,-4.70732 -1.66721,-9.61086 -5.00161,-14.71063 -1.37301,-1.86326 -4.70739,-3.62854 -10.0032,-5.29583 l 0,-0.58841 c 16.0836,-1.22582 24.12539,-2.40266 24.12542,-3.53056 4.11894,-2.10842 6.66876,-4.85442 7.64952,-8.23796 l 0.58843,0"
         id="path3019"
         inkscape:connector-curvature="0"
         style="fill:#000000" />
      <path
         d="m 235.58036,694.1976 0.29413,0 c 24.46863,26.8715 37.31594,40.69951 38.54184,41.48399 l 1.17686,0.29411 c 1.37294,8e-5 3.33435,-2.64782 5.88424,-7.94373 l 1.76528,-2.94212 c -6e-5,-3.23623 -1.37304,-8.23787 -4.11898,-15.00483 -3.5796,-5.29573 -7.30633,-7.94362 -11.18007,-7.94373 l -0.29412,-0.29412 0,-0.58844 c 11.86655,1.2e-4 25.10608,7.84577 39.71871,23.53701 2.40267,3.38354 3.67758,6.61989 3.82477,9.70902 -8e-5,2.20669 -1.07887,4.56039 -3.23633,7.06111 l -0.29411,-0.2941 0.58841,-1.76528 0,-2.35372 c -7e-5,-4.60921 -3.72675,-7.6494 -11.18008,-9.12056 l -0.88261,0 c -8e-5,2.99123 1.96133,5.63916 5.88424,7.94372 l 1.17687,0.29411 c -1.76536,3.6287 -2.64802,15.00491 -2.64794,34.12867 l 0,58.72775 -0.58842,0 c -8e-5,-5.9823 -2.94217,-12.45498 -8.82638,-19.41801 -12.20988,-10.05223 -18.48639,-16.13262 -18.8296,-18.2412 l 0.29411,-0.29412 c 2.35366,1.1769 4.60926,1.76531 6.76688,1.76528 3.04014,3e-5 4.80542,-3.43244 5.29582,-10.29745 l 0.29411,-36.07341 -0.29411,-11.47427 -0.29412,-0.88266 -0.29411,0 c -0.93174,2.1086 -2.50084,7.30638 -4.70741,15.59328 -2.40277,6.12949 -6.52174,12.01374 -12.35691,17.65276 -3.08927,2.50083 -6.22752,4.06998 -9.41481,4.70739 l -0.29412,-0.29411 0,-0.29412 c 5.09964,-3.97184 7.64948,-9.85609 7.64951,-17.65275 l 0,-0.88268 c -3e-5,-5.3938 -1.96143,-10.10119 -5.88425,-14.12219 l -0.29411,0 c 0,1.61827 -2.84406,10.24848 -8.53214,25.89071 -1.37302,2.5499 -2.35374,6.66888 -2.94214,12.35692 0.29413,0.78464 0.5884,1.17689 0.88261,1.17686 1.42202,3e-5 3.08923,-3.33435 5.00166,-10.00323 l 0,-1.76528 0.58841,0 0.29413,3.53056 0,0.88266 -0.88262,16.18167 c -4e-5,11.03298 4.21701,29.944 12.65112,39.8982 l 0,0.29411 c -4.11902,-0.58842 -11.57237,-16.85152 -22.36016,-31.95443 -7.11012,-10.88582 -12.99438,-21.18327 -17.65274,-30.89231 0,-0.49031 0.78458,-0.78452 2.35369,-0.88264 4.26607,-1.66714 7.01209,-4.11892 8.23795,-7.35532 6.47268,-13.72986 9.70899,-24.02728 9.70903,-30.89231 -4e-5,-8.48305 -2.84406,-17.50556 -8.53217,-27.06757 l -2.05947,-4.11897"
         id="path3021"
         inkscape:connector-curvature="0"
         sodipodi:nodetypes="ccccccccccccccccccccsccccccccccccccccsscccccccccccccccccscc"
         style="fill:#000000" />
      <path
         d="m 340.87061,706.26032 -0.29412,0.88263 0.58842,83.26217 c -4e-5,7.01206 3.13821,14.56354 9.4148,22.65434 4.31509,3.53057 8.63017,5.29584 12.94535,5.29584 l 0,0.58842 -7.35528,0.29412 c -8.92453,0 -19.61424,-5.78619 -32.06919,-17.35853 -3.57958,-4.21701 -5.63909,-7.64951 -6.17845,-10.29745 l 0.29412,-0.29412 2.35369,0.58842 0.58844,0 c 1.37298,4e-5 2.05947,-2.94208 2.0595,-8.82637 l 0,-21.47751 0.29412,-22.94857 c 0,-4.70732 -1.66721,-9.61086 -5.00159,-14.71063 -1.37302,-1.86326 -4.70744,-3.62854 -10.00322,-5.29583 l 0,-0.58841 c 16.08355,-1.22582 24.12539,-2.40266 24.12543,-3.53056 4.11893,-2.10842 6.66875,-4.85442 7.64952,-8.23796 l 0.58842,0"
         id="path3023"
         inkscape:connector-curvature="0"
         style="fill:#000000" />
      <path
         d="m 388.91961,794.37697 0.51489,0 0,0.44133 -0.51489,0 0,-0.44133 m -44.64675,-93.26537 0.29412,0 c 11.03293,12.35704 22.11495,18.53548 33.24599,18.53538 l 0.58841,0 c 5.78616,10e-5 9.41478,-2.74589 10.8859,-8.23796 l 0.58842,-4.70739 c 6.66872,3.53065 13.63177,8.82648 20.88906,15.88748 12.45493,14.26941 19.3199,25.54754 20.59489,33.83445 1.96134,6.27658 2.94206,12.45502 2.94212,18.53538 l -0.2941,4.70739 c -3.23643,1.71629 -12.16089,9.66005 -26.77337,23.83125 -10.34653,7.74759 -23.88029,13.53377 -40.60134,17.35853 l 0,-0.58844 c 6.66882,-2.54982 12.45497,-7.35529 17.35856,-14.4164 1.37295,-2.40273 2.05945,-4.56027 2.05949,-6.47268 -4e-5,-1.5691 -0.78461,-2.35369 -2.35372,-2.35369 l -0.88261,0 c -4.75648,0 -8.77738,4.02091 -12.06273,12.0627 -0.3923,3e-5 -0.58846,0.29411 -0.58843,0.88264 l -0.29412,0.29412 -0.88266,0 c -1.91241,-3.57954 -5.83522,-6.8159 -11.7685,-9.709 -5.49195,-3.33437 -8.23795,-7.35529 -8.23795,-12.06272 l 0,-0.29413 c 2.64789,3.1383 5.39389,4.70744 8.23795,4.7074 4.6093,4e-5 7.74759,-3.9228 9.4148,-11.76849 0.5884,-3.23631 0.88262,-6.86494 0.88266,-10.88589 -4e-5,-17.89783 -1.07882,-29.86247 -3.23635,-35.89393 -1.22594,-2.15745 -5.24679,-7.15905 -12.0627,-15.00482 -5.29587,-7.30619 -7.94375,-13.38656 -7.94375,-18.24118 m 33.24602,25.30228 0,1.17686 c 5.68806,7.20827 8.53213,13.97517 8.53217,20.30064 -4e-5,22.75251 0.58836,34.12869 1.76525,34.12866 l 4.70741,3.82478 0,0.29413 c -3.92289,0.39231 -5.8843,1.66722 -5.88426,3.82476 -4e-5,1.96145 3.33435,3.33442 10.00324,4.11899 l 2.0595,0 c 7.01199,3e-5 11.52323,-5.19772 13.53377,-15.5933 l 0.58843,-7.94372 c -7e-5,-14.95574 -5.98238,-28.48948 -17.94699,-40.60132 -3.62864,-3.3343 -7.55148,-5.00153 -11.76849,-5.00164 -3.72672,0.19621 -5.59007,0.68661 -5.59003,1.47108"
         id="path3025"
         inkscape:connector-curvature="0"
         style="fill:#000000" />
      <path
         d="m 435.66154,718.12265 70.31682,0 0.58842,0.58988 c -7.84573,5.3582 -11.76857,9.68399 -11.76849,12.97743 l -0.29412,3.83425 c -4e-5,3.98181 2.84398,16.1727 8.53217,36.57277 l 1.47105,7.6685 0.29411,0 c 2.54976,-3.24433 3.82467,-5.99711 3.82475,-8.25834 l 0,-2.94943 -0.29412,-0.29488 0,-0.29487 0.29412,-0.29488 0.29411,0 c 2.35363,4.81744 3.53049,9.24157 3.53057,13.27238 -8e-5,2.31044 -1.66729,6.53794 -5.00164,12.6825 -0.39233,0.78655 -0.5885,1.86801 -0.58843,3.24438 l 0,0.5899 c -7e-5,0.73732 0.49029,1.81879 1.47109,3.24435 l 0,0.29487 c -1.32403,1.57302 -6.71793,4.81736 -16.18171,9.73305 -3.67769,3.39186 -6.42368,6.43959 -8.23795,9.14322 l -0.29412,-0.29489 c -8e-5,-5.94802 2.25555,-11.35526 6.76687,-16.22179 1.56908,-2.31038 2.35366,-4.17832 2.3537,-5.60392 l 0,-1.17972 c -0.4904,-2.55614 -1.66726,-3.83423 -3.53056,-3.83423 -0.73555,0 -1.6182,0.39326 -2.64788,1.17975 l -0.29412,0 0.58842,-5.30894 0,-1.47475 c -4e-5,-4.17829 -1.37302,-12.04342 -4.11898,-23.59534 -10.19939,2.90029 -17.06436,7.12784 -20.59487,12.68253 -4.70741,9.19235 -7.06109,15.68107 -7.06109,19.46615 0.34306,1.76964 1.02971,2.6545 2.05948,2.65446 1.47105,4e-5 5.2958,-1.86794 11.47428,-5.60388 l 0.29412,0.29487 0,0.29489 c -2.1576,3.83421 -6.27658,9.83138 -12.35693,17.99142 -6.27654,9.73309 -9.4148,35.45792 -9.4148,43.42133 l 0,0.58989 c 0,4.57156 1.27491,9.68392 3.82474,15.33699 l -0.29412,0 c -9.02254,-7.17696 -13.53378,-15.04208 -13.53378,-23.59535 l 0.29413,-41.35674 c 0,-6.63619 -2.25564,-12.24007 -6.76688,-16.8117 l 0,-0.29488 0.29413,0 c 6.32558,0 12.89632,-7.86513 19.71226,-23.59533 10.98391,-20.44926 16.47584,-31.16545 16.47588,-32.14869 -4e-5,-5.01391 -10.3955,-9.63465 -31.18652,-13.86224 l -0.29411,-0.29487 0,-0.58991 m 42.95504,25.36497 -7.3553,15.04207 0.29412,0 c 2.4027,-0.58986 5.14869,-0.88476 8.23794,-0.88483 l 1.17686,0 0.58843,-0.5899 -2.3537,-13.56734 -0.58843,0"
         id="path3027"
         inkscape:connector-curvature="0"
         sodipodi:nodetypes="ccccccccccccccccccccccccccscccsccccccccssccccccsccccccccccccc"
         style="fill:#000000" />
      <path
         d="m 599.56231,700.86851 0,0.29412 c -6.08046,6.42377 -9.12065,12.30801 -9.12061,17.65275 -4e-5,8.87553 5.58997,16.32892 16.77012,22.36016 1.56909,1.52019 4.31504,2.59897 8.23796,3.23636 l 0.29412,0.29411 0,0.29412 c -2.35377,8e-5 -3.53062,6.57082 -3.53055,19.71222 -7e-5,9.95428 0.78452,17.01533 2.3537,21.1833 -8.04186,5.39393 -13.9261,13.04347 -17.65276,22.94858 l -0.58842,5.88426 0,1.47107 c 0.49032,6.86499 2.05943,10.29742 4.7074,10.29742 l 0,0.58844 c -5.93332,0 -13.38671,-4.3151 -22.36014,-12.94536 -8.72832,-10.10123 -15.201,-16.47584 -19.41804,-19.1238 -5.78617,-3.13826 -10.6897,-4.70737 -14.71063,-4.70741 l -0.29412,0.29413 -0.29411,-0.29413 0,-0.2941 c 0.44133,-0.0979 1.12783,-1.56908 2.0595,-4.41318 l 0.29413,-25.00808 0.2941,-2.64789 -0.2941,-3.23636 0,-0.58843 0.2941,-0.29411 -0.2941,-0.29412 0,-1.76529 c 0,-7.7475 -1.07878,-13.53365 -3.23632,-17.35852 0,-0.39217 1.2749,-0.88252 3.82475,-1.47108 5.14871,-1.91225 14.36735,-8.97335 27.65597,-21.1833 10.93487,-7.25711 19.2709,-10.88573 25.00809,-10.88584 m -32.06785,45.89715 0,16.18168 c 0,22.16407 3.13691,37.26693 17.06299,45.30873 l 0.29412,0 c 1.1768,3e-5 4.02083,-5.68809 8.53214,-17.06432 1.17682,-9.56186 1.76524,-17.89789 1.76527,-25.00805 -3e-5,-14.17116 -3.43252,-25.4493 -10.29741,-33.83446 -2.94216,-2.74589 -2.15625,-4.11886 -5.29451,-4.11898 l -0.88264,0 c -2.69698,0.19621 -6.03137,3.62872 -10.00321,10.29745 -0.78459,2.84414 -1.1769,5.59015 -1.17687,8.23795"
         id="path3031"
         inkscape:connector-curvature="0"
         sodipodi:nodetypes="cccccccccccccccccccccccccccscccccscccsccccc"
         style="fill:#000000" />
      <path
         d="m 650.93356,684.34704 c 1.91238,5.24694 2.86855,9.56204 2.86859,12.94535 l -2.35371,11.18007 0,0.88266 c -4e-5,2.15763 2.50076,3.23642 7.50243,3.23631 l 1.98593,0 c 3.97183,1.1e-4 7.1346,-2.25553 9.48835,-6.76686 10.49354,9.46395 17.77529,30.38063 21.84528,37.58872 2.69687,4.4623 4.04534,8.28709 4.04542,11.4743 l 0,0.88262 c -8e-5,2.54995 -0.29413,3.82486 -0.88263,3.82478 -0.93177,-2.35362 -2.47636,-3.53046 -4.63384,-3.53054 -2.35378,8e-5 -6.9386,2.74603 -13.75444,8.23795 -4.02098,1.76533 -6.88951,2.64798 -8.60573,2.6479 22.06589,27.55794 34.88864,43.05313 38.4683,46.48557 8.92436,8.23799 18.58431,12.35697 28.97994,12.35693 l 7.20821,-0.58843 0,0.29412 c -7.6006,6.27655 -16.20634,9.4148 -25.81716,9.4148 l -1.47108,0 c -11.27822,0 -24.00288,-5.09969 -38.17405,-15.29904 -5.93334,-3.13826 -9.29228,-4.7074 -10.0768,-4.7074 l 0,-0.58843 7.79666,0.29411 0.22067,0 c 4.80544,4e-5 7.20817,-1.76524 7.20821,-5.29583 -4e-5,-2.0104 -2.96667,-3.48147 -8.89993,-4.41315 l -23.8312,-39.71873 -0.2941,0 0,0.29412 0.2941,24.71386 0,5.88425 c -3e-5,16.57401 2.86854,27.45985 8.60569,32.65757 l 0,0.29412 c -10.64071,-4.16799 -20.03095,-12.01367 -28.17083,-23.537 l -6.84044,-7.64952 0,-0.29413 0.29412,0 1.39754,0.29413 c 3.97185,6e-5 6.37458,-2.84404 7.20819,-8.53217 l 0,-10.59166 0.29413,-53.77041 c -8.23796,5.09975 -12.35694,22.19171 -12.35694,26.11442 l -0.29412,0 -0.58841,-0.58841 0,-2.05948 c 0,-7.35522 4.3151,-27.19311 12.94534,-34.3524 11.86652,-10.44445 17.79982,-18.38815 17.79985,-23.83122 l 0.29412,-4.7074 -0.29412,-0.88262 0.29412,-0.29412 0.29411,0 m -1.47103,40.13302 0,27.28724 c 3.18724,2.15764 7.01204,3.23642 11.47427,3.23634 6.12937,8e-5 10.24835,-3.0401 12.35693,-9.12061 l 0,-0.88261 c -4e-5,-3.38338 -2.20664,-8.89888 -6.61979,-14.34191 -5.63911,-4.70729 -10.51813,-7.06098 -14.63707,-7.06111 l -0.80907,0 c -1.17688,0.0983 -1.76531,0.39242 -1.76527,0.88264"
         id="path3033"
         inkscape:connector-curvature="0"
         sodipodi:nodetypes="ccccccccccccccccccssccccsccccccscccccccccccccsccccccccccccccc"
         style="fill:#000000" />
      <path
         style="font-size:40px;font-style:normal;font-variant:normal;font-weight:normal;font-stretch:normal;line-height:125%;letter-spacing:-3.11999989px;word-spacing:0px;fill:#000000;fill-opacity:1;stroke:none;font-family:Horst Blackletter;-inkscape-font-specification:Horst Blackletter"
         d="m 537.21903,690.48782 c -0.98076,3.38355 -2.96258,5.67929 -7.22521,8.21875 -0.71841,0.41576 -1.52693,0.85219 -3.71229,1.28125 -8.85131,1.27295 0.19459,0.0196 -8.12495,1.125 -3.46939,0.37621 -7.65525,0.73909 -12.71875,1.125 l 0,0.59375 c 5.29583,1.66728 8.62698,3.44925 10,5.3125 1.069,1.63499 1.93818,3.2491 2.65625,4.84375 l -0.5,133.91119 c -2.58209,-0.775 -14.12674,-1.71238 -16.77508,-2.9375 l -1.4375,-2.125 c -5.19769,4.90364 -9.90785,8.21221 -14.125,9.78125 -7.64941,5.14883 -11.53118,11.03656 -11.53125,17.65625 l 0,0.59375 c 7e-5,4.41328 2.33259,8.57292 6.84375,12.59375 l 0.21875,-0.25 -0.5625,-1.78125 c 8e-5,-5.49188 4.45495,-10.3723 13.28125,-14.6875 l 5.3125,-4.46875 -0.375,-0.25 -2,0.25 -0.9375,0 c -1.52005,7e-5 -2.49613,-0.4567 -2.9375,-1.4375 7e-5,-1.47097 1.75079,-3.22168 5.28125,-5.28125 l 5.3125,-0.9375 c 2.4518,0.39848 13.69943,0.28299 14.61883,1.5625 0.25602,6.5457 0.0524,14.44414 -0.25,32.34375 -1.02969,2.74593 -1.60485,7.50004 -3.125,7.5 l -0.8125,0 c -1.17679,4e-5 -2.50195,-0.51925 -3.875,-1.5 l -0.25,0 0,0.34375 c 7e-5,2.0105 4.30732,7.09237 12.9375,15.28125 7.0121,10.44456 11.52084,22.62296 13.53125,36.5 l 0.59375,0 -1.0625,-83.90625 c 2.04214,-2.51347 3.4863,-4.80054 4.375,-6.71875 2.267,-0.13072 12.15349,-0.42006 15.03105,-0.8125 2.35369,1.27503 3.53125,4.20324 3.53125,8.8125 -0.98068,4.9036 -2.96409,7.40633 -5.90625,7.40625 l 0,0.59375 c 9.5129,8e-5 18.10483,-9.97084 25.65625,-29.78125 1.17685,-3.77563 2.15294,-8.70987 2.9375,-14.9375 l -0.34375,0 c -4.3151,6.12959 -9.22681,11.44419 -14.71875,15.90625 -6.61959,4.25888 -21.68244,6.44911 -30.3123,6.6875 -0.16557,-1.33438 -0.25,-2.89223 -0.25,-4.9375 l 0,-2.96875 c 1.38377,-61.38649 2.05946,-126.94697 1.9687,-149.56744 l 0.375,-0.9375 z"
         id="path3017-3"
         inkscape:connector-curvature="0"
         sodipodi:nodetypes="ccccccccccccccccccccccccccccccccccccccccccccccscccc" />
    </g>
  </g>
</svg>
